<svg xmlns="http://www.w3.org/2000/svg" width="1200" height="900" viewBox="0 0 1200 900" role="img" aria-label="Shipped — Auto Changelog and Roadmap preview">
  <defs>
    <linearGradient id="shipped-bg" x1="0" y1="0" x2="0" y2="1">
      <stop offset="0" stop-color="#f8fafc"/>
      <stop offset="1" stop-color="#eef2f7"/>
    </linearGradient>
    <filter id="shipped-card-shadow" x="-20%" y="-20%" width="140%" height="160%">
      <feDropShadow dx="0" dy="8" stdDeviation="12" flood-color="#0f172a" flood-opacity="0.14"/>
    </filter>
  </defs>

  <!-- Page background -->
  <rect width="1200" height="900" fill="url(#shipped-bg)"/>

  <!-- Browser chrome -->
  <rect x="56" y="48" width="1088" height="804" rx="18" fill="#ffffff" stroke="#e2e8f0" stroke-width="2"/>
  <rect x="56" y="48" width="1088" height="52" rx="18" fill="#f1f5f9"/>
  <rect x="56" y="84" width="1088" height="16" fill="#f1f5f9"/>
  <circle cx="90" cy="74" r="7" fill="#f87171"/>
  <circle cx="116" cy="74" r="7" fill="#fbbf24"/>
  <circle cx="142" cy="74" r="7" fill="#34d399"/>
  <rect x="178" y="63" width="780" height="22" rx="11" fill="#e2e8f0"/>

  <!-- ===================== LEFT: Changelog timeline ===================== -->
  <text x="96" y="158" font-family="system-ui, -apple-system, Segoe UI, Roboto, sans-serif" font-size="26" font-weight="750" fill="#1f2937">Changelog</text>
  <rect x="96" y="174" width="470" height="2" fill="#e2e8f0"/>

  <!-- vertical rail -->
  <rect x="112" y="214" width="2" height="528" fill="#cbd5e1"/>

  <!-- Entry 1 -->
  <circle cx="113" cy="226" r="8" fill="#1f2937"/>
  <circle cx="113" cy="226" r="12" fill="#1f2937" opacity="0.10"/>
  <g filter="url(#shipped-card-shadow)">
    <rect x="140" y="206" width="426" height="118" rx="13" fill="#ffffff" stroke="#e8edf3" stroke-width="1.5"/>
  </g>
  <text x="160" y="236" font-family="system-ui, sans-serif" font-size="12" font-weight="600" letter-spacing="0.5" fill="#64748b">JUN 1, 2024</text>
  <rect x="278" y="224" width="62" height="18" rx="9" fill="#eef2f7"/>
  <text x="309" y="237" font-family="system-ui, sans-serif" font-size="11" font-weight="700" fill="#334155" text-anchor="middle">v1.2.0</text>
  <text x="160" y="266" font-family="system-ui, sans-serif" font-size="17" font-weight="700" fill="#1f2937">Faster search</text>
  <rect x="160" y="282" width="386" height="9" rx="4.5" fill="#e2e8f0"/>
  <rect x="160" y="299" width="300" height="9" rx="4.5" fill="#e2e8f0"/>

  <!-- Entry 2 -->
  <circle cx="113" cy="372" r="8" fill="#1f2937"/>
  <circle cx="113" cy="372" r="12" fill="#1f2937" opacity="0.10"/>
  <g filter="url(#shipped-card-shadow)">
    <rect x="140" y="352" width="426" height="118" rx="13" fill="#ffffff" stroke="#e8edf3" stroke-width="1.5"/>
  </g>
  <text x="160" y="382" font-family="system-ui, sans-serif" font-size="12" font-weight="600" letter-spacing="0.5" fill="#64748b">MAY 10, 2024</text>
  <rect x="288" y="370" width="62" height="18" rx="9" fill="#eef2f7"/>
  <text x="319" y="383" font-family="system-ui, sans-serif" font-size="11" font-weight="700" fill="#334155" text-anchor="middle">v1.1.0</text>
  <text x="160" y="412" font-family="system-ui, sans-serif" font-size="17" font-weight="700" fill="#1f2937">Dark mode</text>
  <rect x="160" y="428" width="386" height="9" rx="4.5" fill="#e2e8f0"/>
  <rect x="160" y="445" width="250" height="9" rx="4.5" fill="#e2e8f0"/>

  <!-- Entry 3 -->
  <circle cx="113" cy="518" r="8" fill="#1f2937"/>
  <circle cx="113" cy="518" r="12" fill="#1f2937" opacity="0.10"/>
  <g filter="url(#shipped-card-shadow)">
    <rect x="140" y="498" width="426" height="118" rx="13" fill="#ffffff" stroke="#e8edf3" stroke-width="1.5"/>
  </g>
  <text x="160" y="528" font-family="system-ui, sans-serif" font-size="12" font-weight="600" letter-spacing="0.5" fill="#64748b">APR 22, 2024</text>
  <rect x="290" y="516" width="62" height="18" rx="9" fill="#eef2f7"/>
  <text x="321" y="529" font-family="system-ui, sans-serif" font-size="11" font-weight="700" fill="#334155" text-anchor="middle">v1.0.0</text>
  <text x="160" y="558" font-family="system-ui, sans-serif" font-size="17" font-weight="700" fill="#1f2937">First release</text>
  <rect x="160" y="574" width="386" height="9" rx="4.5" fill="#e2e8f0"/>
  <rect x="160" y="591" width="320" height="9" rx="4.5" fill="#e2e8f0"/>

  <!-- ===================== RIGHT: Roadmap board ===================== -->
  <text x="612" y="158" font-family="system-ui, -apple-system, Segoe UI, Roboto, sans-serif" font-size="26" font-weight="750" fill="#1f2937">Roadmap</text>
  <rect x="612" y="174" width="492" height="2" fill="#e2e8f0"/>

  <!-- Column: Planned -->
  <g filter="url(#shipped-card-shadow)">
    <rect x="612" y="206" width="152" height="396" rx="13" fill="#ffffff" stroke="#e8edf3" stroke-width="1.5"/>
  </g>
  <rect x="612" y="206" width="152" height="4" rx="2" fill="#8b93a7"/>
  <circle cx="630" cy="238" r="5" fill="#8b93a7"/>
  <text x="642" y="243" font-family="system-ui, sans-serif" font-size="13" font-weight="700" fill="#1f2937">Planned</text>
  <rect x="724" y="231" width="24" height="16" rx="8" fill="#eef2f7"/>
  <text x="736" y="243" font-family="system-ui, sans-serif" font-size="10" font-weight="700" fill="#64748b" text-anchor="middle">2</text>
  <rect x="628" y="262" width="120" height="64" rx="9" fill="#fafbfc" stroke="#e8edf3" stroke-width="1"/>
  <rect x="628" y="262" width="3" height="64" fill="#8b93a7"/>
  <rect x="644" y="278" width="86" height="9" rx="4.5" fill="#cbd5e1"/>
  <rect x="644" y="295" width="74" height="7" rx="3.5" fill="#e2e8f0"/>
  <rect x="644" y="308" width="60" height="7" rx="3.5" fill="#e2e8f0"/>
  <rect x="628" y="338" width="120" height="64" rx="9" fill="#fafbfc" stroke="#e8edf3" stroke-width="1"/>
  <rect x="628" y="338" width="3" height="64" fill="#8b93a7"/>
  <rect x="644" y="354" width="80" height="9" rx="4.5" fill="#cbd5e1"/>
  <rect x="644" y="371" width="70" height="7" rx="3.5" fill="#e2e8f0"/>

  <!-- Column: In progress -->
  <g filter="url(#shipped-card-shadow)">
    <rect x="782" y="206" width="152" height="396" rx="13" fill="#ffffff" stroke="#e8edf3" stroke-width="1.5"/>
  </g>
  <rect x="782" y="206" width="152" height="4" rx="2" fill="#e0a52b"/>
  <circle cx="800" cy="238" r="5" fill="#e0a52b"/>
  <text x="812" y="243" font-family="system-ui, sans-serif" font-size="13" font-weight="700" fill="#1f2937">In progress</text>
  <rect x="900" y="231" width="24" height="16" rx="8" fill="#eef2f7"/>
  <text x="912" y="243" font-family="system-ui, sans-serif" font-size="10" font-weight="700" fill="#64748b" text-anchor="middle">1</text>
  <rect x="798" y="262" width="120" height="80" rx="9" fill="#fffbf2" stroke="#f1e3c4" stroke-width="1"/>
  <rect x="798" y="262" width="3" height="80" fill="#e0a52b"/>
  <rect x="814" y="278" width="88" height="9" rx="4.5" fill="#b9852a"/>
  <rect x="814" y="295" width="76" height="7" rx="3.5" fill="#e2d3ab"/>
  <rect x="814" y="308" width="84" height="7" rx="3.5" fill="#e2d3ab"/>
  <rect x="814" y="321" width="56" height="7" rx="3.5" fill="#e2d3ab"/>

  <!-- Column: Shipped -->
  <g filter="url(#shipped-card-shadow)">
    <rect x="952" y="206" width="152" height="396" rx="13" fill="#ffffff" stroke="#e8edf3" stroke-width="1.5"/>
  </g>
  <rect x="952" y="206" width="152" height="4" rx="2" fill="#2faa6a"/>
  <circle cx="970" cy="238" r="5" fill="#2faa6a"/>
  <text x="982" y="243" font-family="system-ui, sans-serif" font-size="13" font-weight="700" fill="#1f2937">Shipped</text>
  <rect x="1070" y="231" width="24" height="16" rx="8" fill="#eef2f7"/>
  <text x="1082" y="243" font-family="system-ui, sans-serif" font-size="10" font-weight="700" fill="#64748b" text-anchor="middle">3</text>
  <rect x="968" y="262" width="120" height="64" rx="9" fill="#f3fbf6" stroke="#cdeada" stroke-width="1"/>
  <rect x="968" y="262" width="3" height="64" fill="#2faa6a"/>
  <rect x="984" y="278" width="82" height="9" rx="4.5" fill="#268a56"/>
  <rect x="984" y="295" width="72" height="7" rx="3.5" fill="#c0e6cf"/>
  <rect x="968" y="338" width="120" height="64" rx="9" fill="#f3fbf6" stroke="#cdeada" stroke-width="1"/>
  <rect x="968" y="338" width="3" height="64" fill="#2faa6a"/>
  <rect x="984" y="354" width="76" height="9" rx="4.5" fill="#268a56"/>
  <rect x="984" y="371" width="64" height="7" rx="3.5" fill="#c0e6cf"/>
  <rect x="968" y="414" width="120" height="64" rx="9" fill="#f3fbf6" stroke="#cdeada" stroke-width="1"/>
  <rect x="968" y="414" width="3" height="64" fill="#2faa6a"/>
  <rect x="984" y="430" width="80" height="9" rx="4.5" fill="#268a56"/>
  <rect x="984" y="447" width="58" height="7" rx="3.5" fill="#c0e6cf"/>

  <!-- shortcode hints -->
  <rect x="96" y="664" width="470" height="40" rx="10" fill="#0f172a"/>
  <text x="116" y="689" font-family="ui-monospace, SFMono-Regular, Menlo, Consolas, monospace" font-size="16" font-weight="600" fill="#e2e8f0">[shipped_changelog]</text>
  <rect x="612" y="664" width="492" height="40" rx="10" fill="#0f172a"/>
  <text x="632" y="689" font-family="ui-monospace, SFMono-Regular, Menlo, Consolas, monospace" font-size="16" font-weight="600" fill="#e2e8f0">[shipped_roadmap]</text>

  <!-- Caption -->
  <text x="600" y="800" font-family="system-ui, -apple-system, Segoe UI, Roboto, sans-serif" font-size="22" font-weight="600" fill="#475569" text-anchor="middle">Shipped — a self-building changelog timeline &amp; roadmap board. Zero config, theme-adaptive &amp; accessible.</text>
</svg>
